<svg xmlns="http://www.w3.org/2000/svg" xmlns:xlink="http://www.w3.org/1999/xlink" width="1000" zoomAndPan="magnify" viewBox="0 0 750 749.999995" height="1000" preserveAspectRatio="xMidYMid meet" version="1.0"><defs><g/><clipPath id="f1cef07019"><rect x="0" width="674" y="0" height="263"/></clipPath><clipPath id="b4356b2360"><rect x="0" width="677" y="0" height="76"/></clipPath></defs><rect x="-75" width="900" fill="#ffffff" y="-74.999999" height="899.999994" fill-opacity="1"/><rect x="-75" width="900" fill="#ffffff" y="-74.999999" height="899.999994" fill-opacity="1"/><g transform="matrix(1, 0, 0, 1, 30, 170)"><g clip-path="url(#f1cef07019)"><g fill="#005ae0" fill-opacity="1"><g transform="translate(0.746163, 208.850615)"><g><path d="M 188.40625 -69.96875 L 172.953125 -69.96875 L 172.953125 29.09375 L 137.3125 29.09375 L 137.3125 -188.9375 L 172.953125 -188.9375 L 172.953125 -101.15625 L 188.40625 -101.15625 L 188.40625 -188.9375 L 224.046875 -188.9375 L 224.046875 29.09375 L 188.40625 29.09375 Z M 56.078125 -186.3125 L 56.078125 -33.28125 C 56.078125 -26.988281 56.6875 -21.832031 57.90625 -17.8125 C 59.132812 -13.800781 61.101562 -10.613281 63.8125 -8.25 C 66.519531 -5.894531 69.96875 -4.28125 74.15625 -3.40625 C 78.351562 -2.53125 83.421875 -2.09375 89.359375 -2.09375 L 121.859375 -2.09375 L 121.859375 29.09375 L 89.09375 29.09375 C 77.738281 29.09375 67.738281 28.257812 59.09375 26.59375 C 50.445312 24.9375 43.195312 22.007812 37.34375 17.8125 C 31.488281 13.625 27.078125 7.859375 24.109375 0.515625 C 21.140625 -6.816406 19.65625 -16.25 19.65625 -27.78125 L 19.65625 -186.3125 Z M 56.078125 -186.3125 "/></g></g></g><g fill="#005ae0" fill-opacity="1"><g transform="translate(222.427705, 208.850615)"><g><path d="M 61.578125 -70.484375 L 61.578125 -51.890625 L 187.625 -51.890625 L 187.625 -70.484375 L 224.046875 -70.484375 L 224.046875 28.828125 L 78.875 28.828125 C 68.21875 28.828125 59.4375 27.820312 52.53125 25.8125 C 45.632812 23.800781 40.132812 20.742188 36.03125 16.640625 C 31.925781 12.535156 29.085938 7.378906 27.515625 1.171875 C 25.941406 -5.023438 25.15625 -12.40625 25.15625 -20.96875 L 25.15625 -70.484375 Z M 16.515625 -186.3125 L 162.46875 -186.3125 L 162.46875 -155.125 L 107.703125 -155.125 L 107.703125 -129.96875 C 107.703125 -124.382812 108.75 -120.019531 110.84375 -116.875 C 112.9375 -113.726562 116.957031 -112.15625 122.90625 -112.15625 L 162.734375 -112.15625 L 162.734375 -80.96875 L 125 -80.96875 C 104.207031 -80.96875 92.414062 -87.257812 89.625 -99.84375 C 88.226562 -93.550781 84.644531 -88.832031 78.875 -85.6875 C 73.113281 -82.539062 64.90625 -80.96875 54.25 -80.96875 L 16.515625 -80.96875 L 16.515625 -112.15625 L 56.34375 -112.15625 C 62.28125 -112.15625 66.296875 -113.726562 68.390625 -116.875 C 70.484375 -120.019531 71.53125 -124.382812 71.53125 -129.96875 L 71.53125 -155.125 L 16.515625 -155.125 Z M 187.625 -188.9375 L 224.046875 -188.9375 L 224.046875 -78.359375 L 187.625 -78.359375 Z M 187.625 -2.359375 L 187.625 -22.015625 L 61.578125 -22.015625 L 61.578125 -21.75 C 61.578125 -17.207031 61.835938 -13.671875 62.359375 -11.140625 C 62.890625 -8.609375 63.941406 -6.6875 65.515625 -5.375 C 67.085938 -4.0625 69.3125 -3.226562 72.1875 -2.875 C 75.070312 -2.53125 78.875 -2.359375 83.59375 -2.359375 Z M 187.625 -2.359375 "/></g></g></g><g fill="#005ae0" fill-opacity="1"><g transform="translate(444.109248, 208.850615)"><g><path d="M 17.03125 -131.28125 L 112.9375 -131.28125 L 112.9375 -133.125 C 112.9375 -137.488281 112.675781 -141.109375 112.15625 -143.984375 C 111.632812 -146.867188 110.585938 -149.140625 109.015625 -150.796875 C 107.441406 -152.460938 105.210938 -153.597656 102.328125 -154.203125 C 99.441406 -154.816406 95.644531 -155.125 90.9375 -155.125 L 17.03125 -155.125 L 17.03125 -186.3125 L 95.640625 -186.3125 C 106.296875 -186.3125 115.070312 -185.304688 121.96875 -183.296875 C 128.875 -181.285156 134.335938 -178.226562 138.359375 -174.125 C 142.378906 -170.019531 145.21875 -164.863281 146.875 -158.65625 C 148.53125 -152.457031 149.359375 -145.082031 149.359375 -136.53125 L 149.359375 -70.484375 L 112.9375 -70.484375 L 112.9375 -100.109375 L 17.03125 -100.109375 Z M 78.09375 -2.359375 C 83.675781 -2.359375 88.5625 -2.707031 92.75 -3.40625 C 96.945312 -4.101562 100.441406 -5.367188 103.234375 -7.203125 C 106.035156 -9.035156 108.132812 -11.613281 109.53125 -14.9375 C 110.925781 -18.257812 111.625 -22.625 111.625 -28.03125 L 111.625 -55.8125 L 148.0625 -55.8125 L 148.0625 -28.03125 C 148.0625 -22.789062 148.757812 -18.46875 150.15625 -15.0625 C 151.550781 -11.65625 153.601562 -9.035156 156.3125 -7.203125 C 159.019531 -5.367188 162.46875 -4.101562 166.65625 -3.40625 C 170.851562 -2.707031 175.832031 -2.359375 181.59375 -2.359375 L 226.671875 -2.359375 L 226.671875 28.828125 L 175.828125 28.828125 C 165.171875 28.828125 155.867188 27.382812 147.921875 24.5 C 139.972656 21.613281 133.90625 17.640625 129.71875 12.578125 C 125.695312 17.640625 119.710938 21.613281 111.765625 24.5 C 103.816406 27.382812 94.515625 28.828125 83.859375 28.828125 L 33.015625 28.828125 L 33.015625 -2.359375 Z M 158.796875 -145.703125 L 187.625 -145.703125 L 187.625 -188.9375 L 224.046875 -188.9375 L 224.046875 -52.140625 L 187.625 -52.140625 L 187.625 -114.515625 L 158.796875 -114.515625 Z M 158.796875 -145.703125 "/></g></g></g></g></g><g transform="matrix(1, 0, 0, 1, 51, 450)"><g clip-path="url(#b4356b2360)"><g fill="#005ae0" fill-opacity="1"><g transform="translate(1.073687, 60.194543)"><g><path d="M 64.734375 -3.890625 C 64.734375 -6.285156 64.382812 -8.269531 63.6875 -9.84375 C 62.988281 -11.414062 62.003906 -12.648438 60.734375 -13.546875 C 59.460938 -14.441406 57.925781 -15.078125 56.125 -15.453125 C 54.332031 -15.828125 52.363281 -16.015625 50.21875 -16.015625 L 20.953125 -16.015625 C 18.753906 -16.015625 16.769531 -15.828125 15 -15.453125 C 13.226562 -15.078125 11.707031 -14.441406 10.4375 -13.546875 C 9.164062 -12.648438 8.179688 -11.414062 7.484375 -9.84375 C 6.785156 -8.269531 6.4375 -6.285156 6.4375 -3.890625 C 6.4375 -1.492188 6.785156 0.488281 7.484375 2.0625 C 8.179688 3.632812 9.164062 4.867188 10.4375 5.765625 C 11.707031 6.660156 13.226562 7.296875 15 7.671875 C 16.769531 8.046875 18.753906 8.234375 20.953125 8.234375 L 50.21875 8.234375 C 52.363281 8.234375 54.332031 8.046875 56.125 7.671875 C 57.925781 7.296875 59.460938 6.660156 60.734375 5.765625 C 62.003906 4.867188 62.988281 3.632812 63.6875 2.0625 C 64.382812 0.488281 64.734375 -1.492188 64.734375 -3.890625 Z M 4.71875 -49.46875 L 18.9375 -49.46875 L 18.9375 -56.203125 L 29.265625 -56.203125 L 29.265625 -49.46875 L 43.40625 -49.46875 L 43.40625 -40.5625 L 29.265625 -40.5625 L 29.265625 -34.125 C 29.265625 -32.53125 29.5625 -31.285156 30.15625 -30.390625 C 30.757812 -29.492188 31.910156 -29.046875 33.609375 -29.046875 L 43.484375 -29.046875 L 43.484375 -20.140625 L 34.203125 -20.140625 C 28.265625 -20.140625 24.894531 -21.929688 24.09375 -25.515625 C 23.695312 -23.722656 22.675781 -22.378906 21.03125 -21.484375 C 19.382812 -20.585938 17.039062 -20.140625 14 -20.140625 L 4.71875 -20.140625 L 4.71875 -29.046875 L 14.59375 -29.046875 C 16.289062 -29.046875 17.4375 -29.492188 18.03125 -30.390625 C 18.632812 -31.285156 18.9375 -32.53125 18.9375 -34.125 L 18.9375 -40.5625 L 4.71875 -40.5625 Z M 44.609375 -30.46875 L 53.59375 -30.46875 L 53.59375 -18.640625 L 63.984375 -18.640625 L 63.984375 -53.96875 L 53.59375 -53.96875 L 53.59375 -39.375 L 44.609375 -39.375 Z M 54.34375 -3.890625 C 54.34375 -2.742188 54.03125 -1.921875 53.40625 -1.421875 C 52.78125 -0.921875 51.816406 -0.671875 50.515625 -0.671875 L 20.65625 -0.671875 C 19.351562 -0.671875 18.390625 -0.921875 17.765625 -1.421875 C 17.148438 -1.921875 16.84375 -2.742188 16.84375 -3.890625 C 16.84375 -5.035156 17.148438 -5.859375 17.765625 -6.359375 C 18.390625 -6.859375 19.351562 -7.109375 20.65625 -7.109375 L 50.515625 -7.109375 C 51.816406 -7.109375 52.78125 -6.859375 53.40625 -6.359375 C 54.03125 -5.859375 54.34375 -5.035156 54.34375 -3.890625 Z M 54.34375 -3.890625 "/></g></g></g><g fill="#005ae0" fill-opacity="1"><g transform="translate(64.388964, 60.194543)"><g><path d="M 43.40625 -36.671875 C 43.40625 -34.273438 43.09375 -32.066406 42.46875 -30.046875 C 41.84375 -28.023438 40.941406 -26.28125 39.765625 -24.8125 C 38.597656 -23.34375 37.15625 -22.195312 35.4375 -21.375 C 33.71875 -20.550781 31.785156 -20.140625 29.640625 -20.140625 L 18.5625 -20.140625 C 16.363281 -20.140625 14.414062 -20.550781 12.71875 -21.375 C 11.019531 -22.195312 9.582031 -23.34375 8.40625 -24.8125 C 7.238281 -26.28125 6.34375 -28.023438 5.71875 -30.046875 C 5.101562 -32.066406 4.796875 -34.273438 4.796875 -36.671875 C 4.796875 -39.066406 5.101562 -41.273438 5.71875 -43.296875 C 6.34375 -45.316406 7.238281 -47.0625 8.40625 -48.53125 C 9.582031 -50.007812 11.019531 -51.160156 12.71875 -51.984375 C 14.414062 -52.804688 16.363281 -53.21875 18.5625 -53.21875 L 29.640625 -53.21875 C 31.785156 -53.21875 33.71875 -52.804688 35.4375 -51.984375 C 37.15625 -51.160156 38.597656 -50.007812 39.765625 -48.53125 C 40.941406 -47.0625 41.84375 -45.316406 42.46875 -43.296875 C 43.09375 -41.273438 43.40625 -39.066406 43.40625 -36.671875 Z M 50.59375 8.234375 L 50.59375 -0.75 C 50.59375 -2 50.515625 -3.035156 50.359375 -3.859375 C 50.210938 -4.679688 49.914062 -5.328125 49.46875 -5.796875 C 49.019531 -6.273438 48.382812 -6.597656 47.5625 -6.765625 C 46.738281 -6.941406 45.65625 -7.03125 44.3125 -7.03125 L 7.1875 -7.03125 L 7.1875 -15.9375 L 45.65625 -15.9375 C 48.695312 -15.9375 51.203125 -15.648438 53.171875 -15.078125 C 55.140625 -14.503906 56.695312 -13.628906 57.84375 -12.453125 C 59 -11.285156 59.8125 -9.816406 60.28125 -8.046875 C 60.757812 -6.273438 61 -4.164062 61 -1.71875 L 61 8.234375 Z M 50.59375 -53.96875 L 61 -53.96875 L 61 -48.34375 L 69.53125 -48.34375 L 69.53125 -39.4375 L 61 -39.4375 L 61 -34.875 L 69.53125 -34.875 L 69.53125 -25.96875 L 61 -25.96875 L 61 -18.640625 L 50.59375 -18.640625 Z M 33 -36.671875 C 33 -38.960938 32.515625 -40.804688 31.546875 -42.203125 C 30.578125 -43.609375 29.039062 -44.3125 26.9375 -44.3125 L 21.25 -44.3125 C 19.15625 -44.3125 17.617188 -43.609375 16.640625 -42.203125 C 15.671875 -40.804688 15.1875 -38.960938 15.1875 -36.671875 C 15.1875 -34.378906 15.671875 -32.535156 16.640625 -31.140625 C 17.617188 -29.742188 19.15625 -29.046875 21.25 -29.046875 L 26.9375 -29.046875 C 29.039062 -29.046875 30.578125 -29.742188 31.546875 -31.140625 C 32.515625 -32.535156 33 -34.378906 33 -36.671875 Z M 33 -36.671875 "/></g></g></g><g fill="#005ae0" fill-opacity="1"><g transform="translate(127.704241, 60.194543)"><g><path d="M 4.34375 -25.890625 L 17.21875 -25.890625 L 17.21875 -29.40625 C 14.414062 -29.90625 12.203125 -31.050781 10.578125 -32.84375 C 8.960938 -34.644531 8.15625 -37.394531 8.15625 -41.09375 C 8.15625 -43.488281 8.503906 -45.46875 9.203125 -47.03125 C 9.898438 -48.601562 10.882812 -49.835938 12.15625 -50.734375 C 13.4375 -51.640625 14.960938 -52.28125 16.734375 -52.65625 C 18.503906 -53.03125 20.484375 -53.21875 22.671875 -53.21875 L 47.671875 -53.21875 C 49.816406 -53.21875 51.785156 -53.03125 53.578125 -52.65625 C 55.378906 -52.28125 56.914062 -51.640625 58.1875 -50.734375 C 59.457031 -49.835938 60.441406 -48.601562 61.140625 -47.03125 C 61.835938 -45.46875 62.1875 -43.488281 62.1875 -41.09375 C 62.1875 -37.394531 61.363281 -34.644531 59.71875 -32.84375 C 58.070312 -31.050781 55.851562 -29.90625 53.0625 -29.40625 L 53.0625 -25.890625 L 65.9375 -25.890625 L 65.9375 -16.984375 L 4.34375 -16.984375 Z M 62.1875 -3.140625 C 62.1875 -0.742188 61.835938 1.195312 61.140625 2.6875 C 60.441406 4.1875 59.457031 5.347656 58.1875 6.171875 C 56.914062 6.992188 55.378906 7.539062 53.578125 7.8125 C 51.785156 8.09375 49.816406 8.234375 47.671875 8.234375 L 22.671875 8.234375 C 20.484375 8.234375 18.503906 8.09375 16.734375 7.8125 C 14.960938 7.539062 13.4375 6.992188 12.15625 6.171875 C 10.882812 5.347656 9.898438 4.1875 9.203125 2.6875 C 8.503906 1.195312 8.15625 -0.742188 8.15625 -3.140625 C 8.15625 -5.535156 8.503906 -7.46875 9.203125 -8.9375 C 9.898438 -10.414062 10.882812 -11.566406 12.15625 -12.390625 C 13.4375 -13.210938 14.960938 -13.769531 16.734375 -14.0625 C 18.503906 -14.363281 20.484375 -14.515625 22.671875 -14.515625 L 47.671875 -14.515625 C 49.816406 -14.515625 51.785156 -14.363281 53.578125 -14.0625 C 55.378906 -13.769531 56.914062 -13.210938 58.1875 -12.390625 C 59.457031 -11.566406 60.441406 -10.414062 61.140625 -8.9375 C 61.835938 -7.46875 62.1875 -5.535156 62.1875 -3.140625 Z M 51.796875 -41.09375 C 51.796875 -42.238281 51.484375 -43.0625 50.859375 -43.5625 C 50.234375 -44.0625 49.269531 -44.3125 47.96875 -44.3125 L 22.375 -44.3125 C 21.082031 -44.3125 20.125 -44.0625 19.5 -43.5625 C 18.875 -43.0625 18.5625 -42.238281 18.5625 -41.09375 C 18.5625 -39.945312 18.875 -39.125 19.5 -38.625 C 20.125 -38.125 21.082031 -37.875 22.375 -37.875 L 47.96875 -37.875 C 49.269531 -37.875 50.234375 -38.125 50.859375 -38.625 C 51.484375 -39.125 51.796875 -39.945312 51.796875 -41.09375 Z M 51.796875 -3.140625 C 51.796875 -4.285156 51.484375 -4.984375 50.859375 -5.234375 C 50.234375 -5.484375 49.269531 -5.609375 47.96875 -5.609375 L 22.375 -5.609375 C 21.082031 -5.609375 20.125 -5.484375 19.5 -5.234375 C 18.875 -4.984375 18.5625 -4.285156 18.5625 -3.140625 C 18.5625 -1.992188 18.875 -1.296875 19.5 -1.046875 C 20.125 -0.796875 21.082031 -0.671875 22.375 -0.671875 L 47.96875 -0.671875 C 49.269531 -0.671875 50.234375 -0.796875 50.859375 -1.046875 C 51.484375 -1.296875 51.796875 -1.992188 51.796875 -3.140625 Z M 27.625 -25.890625 L 42.65625 -25.890625 L 42.65625 -28.96875 L 27.625 -28.96875 Z M 27.625 -25.890625 "/></g></g></g><g fill="#005ae0" fill-opacity="1"><g transform="translate(191.019515, 60.194543)"><g/></g></g><g fill="#005ae0" fill-opacity="1"><g transform="translate(204.939608, 60.194543)"><g><path d="M 20.359375 -19.3125 C 21.953125 -19.3125 23.347656 -19.410156 24.546875 -19.609375 C 25.742188 -19.804688 26.738281 -20.164062 27.53125 -20.6875 C 28.332031 -21.21875 28.929688 -21.957031 29.328125 -22.90625 C 29.734375 -23.851562 29.9375 -25.097656 29.9375 -26.640625 L 29.9375 -53.96875 L 40.34375 -53.96875 L 40.34375 -26.640625 C 40.34375 -25.148438 40.539062 -23.914062 40.9375 -22.9375 C 41.332031 -21.96875 41.914062 -21.21875 42.6875 -20.6875 C 43.46875 -20.164062 44.457031 -19.804688 45.65625 -19.609375 C 46.851562 -19.410156 48.273438 -19.3125 49.921875 -19.3125 L 62.125 -19.3125 L 62.125 -10.40625 L 48.28125 -10.40625 C 45.226562 -10.40625 42.566406 -10.816406 40.296875 -11.640625 C 38.023438 -12.460938 36.296875 -13.597656 35.109375 -15.046875 C 33.953125 -13.597656 32.238281 -12.460938 29.96875 -11.640625 C 27.695312 -10.816406 25.039062 -10.40625 22 -10.40625 L 8.15625 -10.40625 L 8.15625 -19.3125 Z M 4.34375 -0.671875 L 29.9375 -0.671875 L 29.9375 -9.203125 L 40.34375 -9.203125 L 40.34375 -0.671875 L 65.9375 -0.671875 L 65.9375 8.234375 L 4.34375 8.234375 Z M 4.34375 -0.671875 "/></g></g></g><g fill="#005ae0" fill-opacity="1"><g transform="translate(268.254891, 60.194543)"><g><path d="M 51.046875 8.234375 L 51.046875 0.75 C 51.046875 -0.5 50.96875 -1.535156 50.8125 -2.359375 C 50.664062 -3.179688 50.367188 -3.828125 49.921875 -4.296875 C 49.472656 -4.773438 48.835938 -5.097656 48.015625 -5.265625 C 47.191406 -5.441406 46.101562 -5.53125 44.75 -5.53125 L 8.90625 -5.53125 L 8.90625 -14.4375 L 46.109375 -14.4375 C 49.148438 -14.4375 51.65625 -14.148438 53.625 -13.578125 C 55.59375 -13.003906 57.148438 -12.128906 58.296875 -10.953125 C 59.453125 -9.785156 60.265625 -8.316406 60.734375 -6.546875 C 61.210938 -4.773438 61.453125 -2.664062 61.453125 -0.21875 L 61.453125 8.234375 Z M 4.34375 -26.265625 L 65.9375 -26.265625 L 65.9375 -17.359375 L 4.34375 -17.359375 Z M 61.453125 -37.953125 L 61.453125 -29.046875 L 22.828125 -29.046875 C 20.535156 -29.046875 18.523438 -29.15625 16.796875 -29.375 C 15.078125 -29.601562 13.628906 -30.140625 12.453125 -30.984375 C 11.285156 -31.828125 10.398438 -33.082031 9.796875 -34.75 C 9.203125 -36.425781 8.90625 -38.710938 8.90625 -41.609375 L 8.90625 -53.21875 L 61.453125 -53.21875 L 61.453125 -44.3125 L 19.3125 -44.3125 L 19.3125 -41.84375 C 19.3125 -40.988281 19.347656 -40.300781 19.421875 -39.78125 C 19.492188 -39.257812 19.65625 -38.859375 19.90625 -38.578125 C 20.15625 -38.304688 20.550781 -38.132812 21.09375 -38.0625 C 21.644531 -37.988281 22.421875 -37.953125 23.421875 -37.953125 Z M 61.453125 -37.953125 "/></g></g></g><g fill="#005ae0" fill-opacity="1"><g transform="translate(331.570174, 60.194543)"><g><path d="M 19.3125 -49.328125 L 51.046875 -49.328125 L 51.046875 -53.21875 L 61.453125 -53.21875 L 61.453125 -29.046875 L 22.828125 -29.046875 C 20.535156 -29.046875 18.523438 -29.15625 16.796875 -29.375 C 15.078125 -29.601562 13.628906 -30.140625 12.453125 -30.984375 C 11.285156 -31.828125 10.398438 -33.082031 9.796875 -34.75 C 9.203125 -36.425781 8.90625 -38.710938 8.90625 -41.609375 L 8.90625 -53.21875 L 19.3125 -53.21875 Z M 4.34375 -26.265625 L 65.9375 -26.265625 L 65.9375 -17.359375 L 41.84375 -17.359375 L 41.84375 -6.28125 L 31.4375 -6.28125 L 31.4375 -17.359375 L 4.34375 -17.359375 Z M 19.3125 -14.4375 L 19.3125 -6.953125 C 19.3125 -5.660156 19.382812 -4.613281 19.53125 -3.8125 C 19.6875 -3.019531 19.988281 -2.382812 20.4375 -1.90625 C 20.882812 -1.4375 21.519531 -1.113281 22.34375 -0.9375 C 23.164062 -0.757812 24.25 -0.671875 25.59375 -0.671875 L 62.1875 -0.671875 L 62.1875 8.234375 L 24.25 8.234375 C 21.207031 8.234375 18.695312 7.945312 16.71875 7.375 C 14.75 6.800781 13.175781 5.925781 12 4.75 C 10.832031 3.582031 10.023438 2.113281 9.578125 0.34375 C 9.128906 -1.425781 8.90625 -3.535156 8.90625 -5.984375 L 8.90625 -14.4375 Z M 51.046875 -41.15625 L 19.3125 -41.15625 C 19.3125 -40.363281 19.347656 -39.726562 19.421875 -39.25 C 19.492188 -38.78125 19.664062 -38.421875 19.9375 -38.171875 C 20.21875 -37.921875 20.628906 -37.757812 21.171875 -37.6875 C 21.722656 -37.613281 22.472656 -37.578125 23.421875 -37.578125 L 51.046875 -37.578125 Z M 51.046875 -41.15625 "/></g></g></g><g fill="#005ae0" fill-opacity="1"><g transform="translate(394.885457, 60.194543)"><g><path d="M 46.328125 -36.96875 C 46.328125 -34.375 46.0625 -32.066406 45.53125 -30.046875 C 45.007812 -28.023438 44.175781 -26.328125 43.03125 -24.953125 C 41.882812 -23.585938 40.390625 -22.539062 38.546875 -21.8125 C 36.703125 -21.09375 34.457031 -20.734375 31.8125 -20.734375 L 20.203125 -20.734375 C 17.554688 -20.734375 15.3125 -21.09375 13.46875 -21.8125 C 11.625 -22.539062 10.128906 -23.585938 8.984375 -24.953125 C 7.835938 -26.328125 7 -28.023438 6.46875 -30.046875 C 5.945312 -32.066406 5.6875 -34.375 5.6875 -36.96875 C 5.6875 -39.5625 5.945312 -41.859375 6.46875 -43.859375 C 7 -45.859375 7.835938 -47.554688 8.984375 -48.953125 C 10.128906 -50.347656 11.625 -51.40625 13.46875 -52.125 C 15.3125 -52.851562 17.554688 -53.21875 20.203125 -53.21875 L 31.8125 -53.21875 C 34.457031 -53.21875 36.703125 -52.851562 38.546875 -52.125 C 40.390625 -51.40625 41.882812 -50.347656 43.03125 -48.953125 C 44.175781 -47.554688 45.007812 -45.859375 45.53125 -43.859375 C 46.0625 -41.859375 46.328125 -39.5625 46.328125 -36.96875 Z M 53.59375 -53.96875 L 63.984375 -53.96875 L 63.984375 8.3125 L 53.59375 8.3125 Z M 4.5625 -15.421875 L 49.703125 -15.421875 L 49.703125 -6.515625 L 31.203125 -6.515625 L 31.203125 8.3125 L 20.8125 8.3125 L 20.8125 -6.515625 L 4.5625 -6.515625 Z M 35.921875 -36.96875 C 35.921875 -39.664062 35.535156 -41.5625 34.765625 -42.65625 C 33.992188 -43.757812 32.859375 -44.3125 31.359375 -44.3125 L 20.65625 -44.3125 C 19.15625 -44.3125 18.019531 -43.757812 17.25 -42.65625 C 16.476562 -41.5625 16.09375 -39.664062 16.09375 -36.96875 C 16.09375 -34.28125 16.476562 -32.382812 17.25 -31.28125 C 18.019531 -30.1875 19.15625 -29.640625 20.65625 -29.640625 L 31.359375 -29.640625 C 32.859375 -29.640625 33.992188 -30.1875 34.765625 -31.28125 C 35.535156 -32.382812 35.921875 -34.28125 35.921875 -36.96875 Z M 35.921875 -36.96875 "/></g></g></g><g fill="#005ae0" fill-opacity="1"><g transform="translate(458.20074, 60.194543)"><g/></g></g><g fill="#005ae0" fill-opacity="1"><g transform="translate(472.120814, 60.194543)"><g><path d="M 24.40625 8.3125 L 24.40625 -38.015625 C 24.40625 -39.265625 24.328125 -40.300781 24.171875 -41.125 C 24.023438 -41.945312 23.726562 -42.59375 23.28125 -43.0625 C 22.832031 -43.539062 22.195312 -43.867188 21.375 -44.046875 C 20.550781 -44.222656 19.460938 -44.3125 18.109375 -44.3125 L 4.859375 -44.3125 L 4.859375 -53.21875 L 19.453125 -53.21875 C 22.453125 -53.21875 24.9375 -52.941406 26.90625 -52.390625 C 28.875 -51.835938 30.429688 -50.988281 31.578125 -49.84375 C 32.734375 -48.695312 33.554688 -47.25 34.046875 -45.5 C 34.546875 -43.757812 34.796875 -41.71875 34.796875 -39.375 L 39.8125 -39.375 L 39.8125 -53.96875 L 50 -53.96875 L 50 8.3125 L 39.8125 8.3125 L 39.8125 -9.5 L 34.796875 -9.5 L 34.796875 8.3125 Z M 53.8125 -53.96875 L 63.984375 -53.96875 L 63.984375 8.3125 L 53.8125 8.3125 Z M 34.796875 -18.40625 L 39.8125 -18.40625 L 39.8125 -30.46875 L 34.796875 -30.46875 Z M 34.796875 -18.40625 "/></g></g></g><g fill="#005ae0" fill-opacity="1"><g transform="translate(535.436097, 60.194543)"><g><path d="M 17.59375 -15.9375 L 17.59375 -6.953125 C 17.59375 -5.660156 17.664062 -4.613281 17.8125 -3.8125 C 17.957031 -3.019531 18.253906 -2.382812 18.703125 -1.90625 C 19.160156 -1.4375 19.800781 -1.113281 20.625 -0.9375 C 21.445312 -0.757812 22.53125 -0.671875 23.875 -0.671875 L 61.75 -0.671875 L 61.75 8.234375 L 22.53125 8.234375 C 19.488281 8.234375 16.976562 7.945312 15 7.375 C 13.03125 6.800781 11.457031 5.925781 10.28125 4.75 C 9.113281 3.582031 8.304688 2.113281 7.859375 0.34375 C 7.410156 -1.425781 7.1875 -3.535156 7.1875 -5.984375 L 7.1875 -15.9375 Z M 30.015625 -53.21875 L 30.015625 -34.125 C 30.015625 -32.53125 30.3125 -31.285156 30.90625 -30.390625 C 31.507812 -29.492188 32.660156 -29.046875 34.359375 -29.046875 L 44.984375 -29.046875 L 44.984375 -20.140625 L 34.953125 -20.140625 C 29.015625 -20.140625 25.644531 -21.929688 24.84375 -25.515625 C 24.445312 -23.722656 23.425781 -22.378906 21.78125 -21.484375 C 20.132812 -20.585938 17.789062 -20.140625 14.75 -20.140625 L 4.71875 -20.140625 L 4.71875 -29.046875 L 15.34375 -29.046875 C 17.039062 -29.046875 18.1875 -29.492188 18.78125 -30.390625 C 19.382812 -31.285156 19.6875 -32.53125 19.6875 -34.125 L 19.6875 -53.21875 Z M 50.59375 -53.96875 L 61 -53.96875 L 61 -37.125 L 69.53125 -37.125 L 69.53125 -28.21875 L 61 -28.21875 L 61 -10.40625 L 50.59375 -10.40625 Z M 50.59375 -53.96875 "/></g></g></g><g fill="#005ae0" fill-opacity="1"><g transform="translate(598.751381, 60.194543)"><g><path d="M 53.59375 -53.96875 L 63.984375 -53.96875 L 63.984375 8.3125 L 53.59375 8.3125 Z M 33.75 8.3125 L 33.75 -38.015625 C 33.75 -39.265625 33.675781 -40.300781 33.53125 -41.125 C 33.382812 -41.945312 33.082031 -42.59375 32.625 -43.0625 C 32.175781 -43.539062 31.539062 -43.867188 30.71875 -44.046875 C 29.894531 -44.222656 28.8125 -44.3125 27.46875 -44.3125 L 4.859375 -44.3125 L 4.859375 -53.21875 L 28.8125 -53.21875 C 31.851562 -53.21875 34.359375 -52.929688 36.328125 -52.359375 C 38.304688 -51.785156 39.867188 -50.910156 41.015625 -49.734375 C 42.160156 -48.554688 42.96875 -47.082031 43.4375 -45.3125 C 43.914062 -43.539062 44.15625 -41.4375 44.15625 -39 L 44.15625 8.3125 Z M 33.75 8.3125 "/></g></g></g><g fill="#005ae0" fill-opacity="1"><g transform="translate(662.070981, 60.194543)"><g/></g></g></g></g></svg>