<svg xmlns="http://www.w3.org/2000/svg" xmlns:xlink="http://www.w3.org/1999/xlink" width="1000" zoomAndPan="magnify" viewBox="0 0 750 749.999995" height="1000" preserveAspectRatio="xMidYMid meet" version="1.0"><defs><g/><clipPath id="4947c02262"><rect x="0" width="674" y="0" height="263"/></clipPath></defs><g transform="matrix(1, 0, 0, 1, 30, 229)"><g clip-path="url(#4947c02262)"><g fill="#005ae0" fill-opacity="1"><g transform="translate(0.746163, 209.18862)"><g><path d="M 188.40625 -69.96875 L 172.953125 -69.96875 L 172.953125 29.09375 L 137.3125 29.09375 L 137.3125 -188.9375 L 172.953125 -188.9375 L 172.953125 -101.15625 L 188.40625 -101.15625 L 188.40625 -188.9375 L 224.046875 -188.9375 L 224.046875 29.09375 L 188.40625 29.09375 Z M 56.078125 -186.3125 L 56.078125 -33.28125 C 56.078125 -26.988281 56.6875 -21.832031 57.90625 -17.8125 C 59.132812 -13.800781 61.101562 -10.613281 63.8125 -8.25 C 66.519531 -5.894531 69.96875 -4.28125 74.15625 -3.40625 C 78.351562 -2.53125 83.421875 -2.09375 89.359375 -2.09375 L 121.859375 -2.09375 L 121.859375 29.09375 L 89.09375 29.09375 C 77.738281 29.09375 67.738281 28.257812 59.09375 26.59375 C 50.445312 24.9375 43.195312 22.007812 37.34375 17.8125 C 31.488281 13.625 27.078125 7.859375 24.109375 0.515625 C 21.140625 -6.816406 19.65625 -16.25 19.65625 -27.78125 L 19.65625 -186.3125 Z M 56.078125 -186.3125 "/></g></g></g><g fill="#005ae0" fill-opacity="1"><g transform="translate(222.427705, 209.18862)"><g><path d="M 61.578125 -70.484375 L 61.578125 -51.890625 L 187.625 -51.890625 L 187.625 -70.484375 L 224.046875 -70.484375 L 224.046875 28.828125 L 78.875 28.828125 C 68.21875 28.828125 59.4375 27.820312 52.53125 25.8125 C 45.632812 23.800781 40.132812 20.742188 36.03125 16.640625 C 31.925781 12.535156 29.085938 7.378906 27.515625 1.171875 C 25.941406 -5.023438 25.15625 -12.40625 25.15625 -20.96875 L 25.15625 -70.484375 Z M 16.515625 -186.3125 L 162.46875 -186.3125 L 162.46875 -155.125 L 107.703125 -155.125 L 107.703125 -129.96875 C 107.703125 -124.382812 108.75 -120.019531 110.84375 -116.875 C 112.9375 -113.726562 116.957031 -112.15625 122.90625 -112.15625 L 162.734375 -112.15625 L 162.734375 -80.96875 L 125 -80.96875 C 104.207031 -80.96875 92.414062 -87.257812 89.625 -99.84375 C 88.226562 -93.550781 84.644531 -88.832031 78.875 -85.6875 C 73.113281 -82.539062 64.90625 -80.96875 54.25 -80.96875 L 16.515625 -80.96875 L 16.515625 -112.15625 L 56.34375 -112.15625 C 62.28125 -112.15625 66.296875 -113.726562 68.390625 -116.875 C 70.484375 -120.019531 71.53125 -124.382812 71.53125 -129.96875 L 71.53125 -155.125 L 16.515625 -155.125 Z M 187.625 -188.9375 L 224.046875 -188.9375 L 224.046875 -78.359375 L 187.625 -78.359375 Z M 187.625 -2.359375 L 187.625 -22.015625 L 61.578125 -22.015625 L 61.578125 -21.75 C 61.578125 -17.207031 61.835938 -13.671875 62.359375 -11.140625 C 62.890625 -8.609375 63.941406 -6.6875 65.515625 -5.375 C 67.085938 -4.0625 69.3125 -3.226562 72.1875 -2.875 C 75.070312 -2.53125 78.875 -2.359375 83.59375 -2.359375 Z M 187.625 -2.359375 "/></g></g></g><g fill="#005ae0" fill-opacity="1"><g transform="translate(444.109248, 209.18862)"><g><path d="M 17.03125 -131.28125 L 112.9375 -131.28125 L 112.9375 -133.125 C 112.9375 -137.488281 112.675781 -141.109375 112.15625 -143.984375 C 111.632812 -146.867188 110.585938 -149.140625 109.015625 -150.796875 C 107.441406 -152.460938 105.210938 -153.597656 102.328125 -154.203125 C 99.441406 -154.816406 95.644531 -155.125 90.9375 -155.125 L 17.03125 -155.125 L 17.03125 -186.3125 L 95.640625 -186.3125 C 106.296875 -186.3125 115.070312 -185.304688 121.96875 -183.296875 C 128.875 -181.285156 134.335938 -178.226562 138.359375 -174.125 C 142.378906 -170.019531 145.21875 -164.863281 146.875 -158.65625 C 148.53125 -152.457031 149.359375 -145.082031 149.359375 -136.53125 L 149.359375 -70.484375 L 112.9375 -70.484375 L 112.9375 -100.109375 L 17.03125 -100.109375 Z M 78.09375 -2.359375 C 83.675781 -2.359375 88.5625 -2.707031 92.75 -3.40625 C 96.945312 -4.101562 100.441406 -5.367188 103.234375 -7.203125 C 106.035156 -9.035156 108.132812 -11.613281 109.53125 -14.9375 C 110.925781 -18.257812 111.625 -22.625 111.625 -28.03125 L 111.625 -55.8125 L 148.0625 -55.8125 L 148.0625 -28.03125 C 148.0625 -22.789062 148.757812 -18.46875 150.15625 -15.0625 C 151.550781 -11.65625 153.601562 -9.035156 156.3125 -7.203125 C 159.019531 -5.367188 162.46875 -4.101562 166.65625 -3.40625 C 170.851562 -2.707031 175.832031 -2.359375 181.59375 -2.359375 L 226.671875 -2.359375 L 226.671875 28.828125 L 175.828125 28.828125 C 165.171875 28.828125 155.867188 27.382812 147.921875 24.5 C 139.972656 21.613281 133.90625 17.640625 129.71875 12.578125 C 125.695312 17.640625 119.710938 21.613281 111.765625 24.5 C 103.816406 27.382812 94.515625 28.828125 83.859375 28.828125 L 33.015625 28.828125 L 33.015625 -2.359375 Z M 158.796875 -145.703125 L 187.625 -145.703125 L 187.625 -188.9375 L 224.046875 -188.9375 L 224.046875 -52.140625 L 187.625 -52.140625 L 187.625 -114.515625 L 158.796875 -114.515625 Z M 158.796875 -145.703125 "/></g></g></g></g></g></svg>